<?xml version="1.0" standalone="no"?>
<!DOCTYPE svg PUBLIC "-//W3C//DTD SVG 20010904//EN"
 "http://www.w3.org/TR/2001/REC-SVG-20010904/DTD/svg10.dtd">
<svg version="1.0" xmlns="http://www.w3.org/2000/svg"
 width="512.000000pt" height="512.000000pt" viewBox="0 0 512.000000 512.000000"
 preserveAspectRatio="xMidYMid meet">
<metadata>
Created by potrace 1.16, written by Peter Selinger 2001-2019
</metadata>
<g transform="translate(0.000000,512.000000) scale(0.100000,-0.100000)"
fill="#000000" stroke="none">
<path d="M514 5100 c-144 -37 -273 -122 -366 -240 -48 -61 -93 -143 -120 -220
l-23 -65 -3 -1985 c-3 -2219 -8 -2056 69 -2209 87 -175 257 -313 444 -361 77
-20 110 -20 2045 -20 1913 0 1969 1 2043 19 228 59 406 228 490 465 l22 61 3
1985 c2 1354 -1 2001 -8 2035 -52 250 -223 439 -474 528 l-61 22 -1995 2
c-1922 2 -1998 1 -2066 -17z m3559 -1304 c52 -21 87 -70 87 -121 0 -52 -495
-2246 -515 -2286 -26 -50 -73 -74 -141 -74 -69 0 -29 -24 -599 363 l-250 169
-195 -184 c-107 -102 -207 -191 -222 -199 -51 -27 -119 -13 -160 33 -10 11
-81 206 -159 434 -77 228 -142 415 -143 416 -1 1 -175 49 -386 107 -427 117
-430 119 -430 196 0 26 7 47 23 64 17 20 334 138 1507 560 817 294 1500 535
1518 536 18 0 47 -6 65 -14z"/>
<path d="M2745 2895 c-515 -295 -815 -473 -824 -488 -13 -21 -5 -51 98 -360
62 -185 116 -337 120 -337 4 0 20 101 35 225 15 124 29 232 32 239 3 7 315
267 695 577 544 444 689 568 687 584 -2 11 -10 21 -18 22 -8 2 -379 -206 -825
-462z"/>
</g>
</svg>
